<svg width="543" height="543" viewBox="0 0 543 543" fill="none" xmlns="http://www.w3.org/2000/svg">
<path d="M497.75 67.875H45.25C20.5887 68.78 0.905 88.4637 0 113.125V429.875C0.905 454.536 20.5887 474.22 45.25 475.125H497.75C522.411 474.22 542.095 454.536 543 429.875V113.125C542.584 101.257 537.682 89.9874 529.285 81.5899C520.888 73.1925 509.618 68.2914 497.75 67.875ZM497.75 429.875H45.25V113.125H497.75V429.875ZM316.75 384.625V356.344C316.75 318.786 241.182 299.781 203.625 299.781C166.068 299.781 90.5 318.786 90.5 356.344V384.625H316.75ZM203.625 158.375C188.624 158.375 174.237 164.334 163.629 174.942C153.022 185.549 147.063 199.936 147.062 214.938C147.063 222.365 148.526 229.721 151.368 236.583C154.211 243.446 158.377 249.681 163.629 254.933C174.237 265.541 188.624 271.5 203.625 271.5C211.053 271.5 218.408 270.037 225.271 267.194C232.133 264.352 238.368 260.186 243.621 254.933C248.873 249.681 253.039 243.446 255.882 236.583C258.724 229.721 260.187 222.365 260.188 214.938C260.187 207.51 258.724 200.154 255.882 193.292C253.039 186.429 248.873 180.194 243.621 174.942C238.368 169.689 232.133 165.523 225.271 162.681C218.408 159.838 211.053 158.375 203.625 158.375ZM316.75 158.375V181H452.5V158.375H316.75ZM316.75 203.625V226.25H452.5V203.625H316.75ZM316.75 248.875V271.5H407.25V248.875H316.75Z" fill="black"/>
</svg>
